# xmcd
# 
# Track frame offsets:
#     150
#     14322
#     30074
#     42011
#     56153
#     69054
#     82701
#     97425
#     111977
#     126155
#     141359
#     156324
#     172083
#     186153
#     200587
#     212876
#     227551
#     241118
#     256106
#     270763
#     284118
# 
# Disc length: 3977
# 
# Revision: 2
# Processed by: cddbd v1.5.2PL0 Copyright (c) Steve Scherf et al.
# Submitted via: fre:ac v1.0.17
# 
DISCID=250f8715
DTITLE=Doris Day - The Doris Day Collecton (1 of 2)
DYEAR=2001
DGENRE=Pop
TTITLE0=Love Somebody
TTITLE1=It's Magic
TTITLE2=Powder Your Face With Sunshine
TTITLE3=Let's Be Buddies
TTITLE4=Three At A Table
TTITLE5=Till The End Of Time
TTITLE6=I'd Rather Be With You
TTITLE7=Sentimental Journey
TTITLE8=I'll Always Be With You
TTITLE9=It Could Happen To You
TTITLE10='T Ain't Me
TTITLE11=The Last Time I Saw You
TTITLE12=Come To Baby
TTITLE13=A Red Kiss On A Blue Letter
TTITLE14=Canadian Capers
TTITLE15=Sooner Or Later
TTITLE16=My Number One Dream Come True
TTITLE17=You Should Have Told Me
TTITLE18=He's Home For A Little While
TTITLE19=Keep Cool
TTITLE20=Fool Made Up My Mind
EXTD=
EXTT0=
EXTT1=
EXTT2=
EXTT3=
EXTT4=
EXTT5=
EXTT6=
EXTT7=
EXTT8=
EXTT9=
EXTT10=
EXTT11=
EXTT12=
EXTT13=
EXTT14=
EXTT15=
EXTT16=
EXTT17=
EXTT18=
EXTT19=
EXTT20=
PLAYORDER=
